<mxfile host="app.diagrams.net" modified="2023-09-15T02:00:45.396Z" agent="Mozilla/5.0 (X11; Linux x86_64; rv:102.0) Gecko/20100101 Firefox/102.0" version="21.7.5" etag="NhU65iJkJYmbr_EzPWEW" type="github">
  <diagram name="Page-1" id="2LtexqtlbSiLHXwtFzQk">
    <mxGraphModel>
      <root>
        <mxCell id="0" />
        <mxCell id="1" parent="0" />
      </root>
    </mxGraphModel>
  </diagram>
</mxfile>
